<svg width="162" height="71" viewBox="0 0 162 71" fill="none" xmlns="http://www.w3.org/2000/svg">
<path d="M14.3613 50V29.2H3.84125V22.16H26.3213V29.2H15.8013V50H14.3613ZM34.6906 22.16H54.9706V29.2H41.9706V32.72H52.7706V39.4H41.9706V42.96H54.9706V50H34.6906V22.16ZM117.029 50H90.7894L103.909 21.56L117.029 50ZM93.1094 48.52H114.709L103.909 25.08L93.1094 48.52Z" fill="#173B45"/>
<path d="M63.46 49.96V22.12H65.02L84.46 41.04V22.12H85.94V49.96H63.46Z" fill="#FF8225"/>
<path d="M5.32961 14C4.99361 14 4.82561 13.832 4.82561 13.496V8.924H4.38161C4.04561 8.924 3.87761 8.756 3.87761 8.42C3.87761 8.084 4.04561 7.916 4.38161 7.916H4.82561V7.868C4.82561 7.08 5.01561 6.498 5.39561 6.122C5.77561 5.742 6.35761 5.552 7.14161 5.552C7.42961 5.552 7.57361 5.72 7.57361 6.056C7.57361 6.392 7.42961 6.56 7.14161 6.56C6.63761 6.56 6.29361 6.65 6.10961 6.83C5.92561 7.01 5.83361 7.356 5.83361 7.868V7.916H7.06961C7.40561 7.916 7.57361 8.084 7.57361 8.42C7.57361 8.756 7.40561 8.924 7.06961 8.924H5.83361V13.496C5.83361 13.832 5.66561 14 5.32961 14ZM10.9272 14C10.1312 14 9.53923 13.808 9.15123 13.424C8.76723 13.04 8.57523 12.452 8.57523 11.66V10.268C8.57523 9.464 8.76723 8.872 9.15123 8.492C9.53923 8.108 10.1312 7.916 10.9272 7.916H11.9112C12.7112 7.916 13.3032 8.108 13.6872 8.492C14.0712 8.876 14.2632 9.468 14.2632 10.268V11.648C14.2632 12.444 14.0712 13.036 13.6872 13.424C13.3032 13.808 12.7112 14 11.9112 14H10.9272ZM9.58323 11.66C9.58323 12.176 9.67723 12.528 9.86523 12.716C10.0532 12.9 10.4072 12.992 10.9272 12.992H11.9112C12.4352 12.992 12.7892 12.898 12.9732 12.71C13.1612 12.522 13.2552 12.168 13.2552 11.648V10.268C13.2552 9.744 13.1612 9.39 12.9732 9.206C12.7892 9.018 12.4352 8.924 11.9112 8.924H10.9272C10.5792 8.924 10.3072 8.964 10.1112 9.044C9.91923 9.12 9.78323 9.256 9.70323 9.452C9.62323 9.644 9.58323 9.916 9.58323 10.268V11.66ZM16.9727 14C16.6367 14 16.4687 13.832 16.4687 13.496V8.42C16.4687 8.084 16.6367 7.916 16.9727 7.916C17.3087 7.916 17.4767 8.084 17.4767 8.42V8.888C17.7127 8.568 18.0127 8.326 18.3767 8.162C18.7447 7.998 19.1647 7.916 19.6367 7.916C19.9727 7.916 20.1407 8.084 20.1407 8.42C20.1407 8.756 19.9727 8.924 19.6367 8.924C18.9447 8.924 18.4167 9.052 18.0527 9.308C17.6887 9.564 17.4967 9.902 17.4767 10.322V13.496C17.4767 13.832 17.3087 14 16.9727 14ZM21.9378 6.932C21.5578 6.932 21.3678 6.74 21.3678 6.356V6.002C21.3678 5.626 21.5578 5.438 21.9378 5.438H22.2858C22.6498 5.438 22.8318 5.626 22.8318 6.002V6.356C22.8318 6.74 22.6498 6.932 22.2858 6.932H21.9378ZM20.7738 16.4C20.6018 16.4 20.4758 16.356 20.3958 16.268C20.3198 16.18 20.2818 16.056 20.2818 15.896C20.2818 15.732 20.3238 15.606 20.4078 15.518C20.4918 15.434 20.6138 15.392 20.7738 15.392C21.0978 15.392 21.3138 15.336 21.4218 15.224C21.5338 15.116 21.5898 14.9 21.5898 14.576V8.42C21.5898 8.084 21.7578 7.916 22.0938 7.916C22.4298 7.916 22.5978 8.084 22.5978 8.42V14.576C22.5978 15.192 22.4478 15.65 22.1478 15.95C21.8518 16.25 21.3938 16.4 20.7738 16.4ZM26.9657 14C26.2937 14 25.7937 13.836 25.4657 13.508C25.1377 13.18 24.9737 12.68 24.9737 12.008C24.9737 11.336 25.1357 10.836 25.4597 10.508C25.7877 10.18 26.2897 10.016 26.9657 10.016H29.5037C29.4797 9.596 29.3697 9.31 29.1737 9.158C28.9777 9.002 28.6417 8.924 28.1657 8.924H27.4697C27.0697 8.924 26.7717 8.952 26.5757 9.008C26.3797 9.06 26.2417 9.156 26.1617 9.296C26.0897 9.464 26.0157 9.58 25.9397 9.644C25.8637 9.708 25.7497 9.74 25.5977 9.74C25.4297 9.74 25.2977 9.694 25.2017 9.602C25.1057 9.506 25.0777 9.38 25.1177 9.224C25.2377 8.772 25.4877 8.442 25.8677 8.234C26.2517 8.022 26.7857 7.916 27.4697 7.916H28.1657C28.9657 7.916 29.5577 8.108 29.9417 8.492C30.3257 8.876 30.5177 9.468 30.5177 10.268V13.496C30.5177 13.832 30.3497 14 30.0137 14C29.6777 14 29.5097 13.832 29.5097 13.496V13.226C29.0817 13.742 28.4577 14 27.6377 14H26.9657ZM26.9657 12.992H27.6377C27.9337 12.992 28.2117 12.966 28.4717 12.914C28.7317 12.858 28.9537 12.758 29.1377 12.614C29.3257 12.47 29.4497 12.264 29.5097 11.996V11.024H26.9657C26.5697 11.024 26.3057 11.09 26.1737 11.222C26.0457 11.354 25.9817 11.616 25.9817 12.008C25.9817 12.404 26.0457 12.668 26.1737 12.8C26.3057 12.928 26.5697 12.992 26.9657 12.992Z" fill="#173B45"/>
<path d="M120.509 65C120.229 65 120.089 64.86 120.089 64.58V58.38C120.089 58.1 120.229 57.96 120.509 57.96C120.789 57.96 120.929 58.1 120.929 58.38V60.465C121.102 60.2883 121.319 60.155 121.579 60.065C121.839 59.975 122.142 59.93 122.489 59.93H122.869C123.535 59.93 124.029 60.09 124.349 60.41C124.669 60.73 124.829 61.2233 124.829 61.89V63.04C124.829 63.7033 124.669 64.1967 124.349 64.52C124.029 64.84 123.535 65 122.869 65H122.489C122.142 65 121.839 64.955 121.579 64.865C121.319 64.775 121.102 64.6433 120.929 64.47V64.58C120.929 64.86 120.789 65 120.509 65ZM122.489 64.16H122.869C123.305 64.16 123.6 64.0817 123.754 63.925C123.91 63.765 123.989 63.47 123.989 63.04V61.89C123.989 61.4533 123.909 61.1583 123.749 61.005C123.592 60.8483 123.299 60.77 122.869 60.77H122.489C122.049 60.77 121.679 60.8267 121.379 60.94C121.079 61.05 120.929 61.2233 120.929 61.46V63.47C120.929 63.7033 121.079 63.8767 121.379 63.99C121.679 64.1033 122.049 64.16 122.489 64.16ZM128.011 67C127.528 67 127.166 66.8783 126.926 66.635C126.689 66.395 126.571 66.0333 126.571 65.55C126.571 65.27 126.711 65.13 126.991 65.13C127.271 65.13 127.411 65.27 127.411 65.55C127.411 65.8 127.448 65.9633 127.521 66.04C127.598 66.12 127.761 66.16 128.011 66.16H129.951C130.198 66.16 130.359 66.12 130.436 66.04C130.513 65.9633 130.551 65.8 130.551 65.55V64.28C130.351 64.58 130.118 64.775 129.851 64.865C129.588 64.955 129.301 65 128.991 65H128.501C127.841 65 127.354 64.8433 127.041 64.53C126.728 64.2167 126.571 63.7333 126.571 63.08V60.35C126.571 60.07 126.711 59.93 126.991 59.93C127.271 59.93 127.411 60.07 127.411 60.35V63.08C127.411 63.5 127.486 63.785 127.636 63.935C127.789 64.085 128.078 64.16 128.501 64.16H128.991C129.538 64.16 129.934 64.0717 130.181 63.895C130.428 63.715 130.551 63.4433 130.551 63.08V60.35C130.551 60.07 130.691 59.93 130.971 59.93C131.251 59.93 131.391 60.07 131.391 60.35V65.55C131.391 66.0333 131.271 66.395 131.031 66.635C130.791 66.8783 130.431 67 129.951 67H128.011ZM138.332 65C137.669 65 137.176 64.84 136.852 64.52C136.532 64.1967 136.372 63.7033 136.372 63.04V61.88C136.372 61.2133 136.531 60.72 136.847 60.4C137.167 60.08 137.662 59.9233 138.332 59.93H139.152C139.649 59.93 140.039 60.0133 140.322 60.18C140.609 60.3467 140.792 60.6033 140.872 60.95C140.902 61.09 140.877 61.1983 140.797 61.275C140.721 61.3517 140.609 61.39 140.462 61.39C140.332 61.39 140.237 61.3567 140.177 61.29C140.117 61.2233 140.062 61.13 140.012 61.01C139.962 60.92 139.871 60.8583 139.737 60.825C139.604 60.7883 139.409 60.77 139.152 60.77H138.332C137.902 60.7633 137.607 60.8383 137.447 60.995C137.291 61.1483 137.212 61.4433 137.212 61.88V63.04C137.212 63.4733 137.291 63.7683 137.447 63.925C137.607 64.0817 137.902 64.16 138.332 64.16H139.152C139.409 64.16 139.604 64.1433 139.737 64.11C139.871 64.0733 139.962 64.01 140.012 63.92C140.062 63.7933 140.117 63.6983 140.177 63.635C140.241 63.5717 140.339 63.54 140.472 63.54C140.612 63.54 140.721 63.5783 140.797 63.655C140.877 63.7317 140.902 63.84 140.872 63.98C140.792 64.3233 140.609 64.58 140.322 64.75C140.039 64.9167 139.649 65 139.152 65H138.332ZM142.818 65C142.551 65 142.418 64.8667 142.418 64.6V64.35C142.418 64.09 142.551 63.96 142.818 63.96H143.058C143.311 63.96 143.438 64.09 143.438 64.35V64.6C143.438 64.8667 143.311 65 143.058 65H142.818ZM145.603 59.11C145.287 59.11 145.128 58.95 145.128 58.63V58.335C145.128 58.0217 145.287 57.865 145.603 57.865H145.893C146.197 57.865 146.348 58.0217 146.348 58.335V58.63C146.348 58.95 146.197 59.11 145.893 59.11H145.603ZM144.633 67C144.49 67 144.385 66.9633 144.318 66.89C144.255 66.8167 144.223 66.7133 144.223 66.58C144.223 66.4433 144.258 66.3383 144.328 66.265C144.398 66.195 144.5 66.16 144.633 66.16C144.903 66.16 145.083 66.1133 145.173 66.02C145.267 65.93 145.313 65.75 145.313 65.48V60.35C145.313 60.07 145.453 59.93 145.733 59.93C146.013 59.93 146.153 60.07 146.153 60.35V65.48C146.153 65.9933 146.028 66.375 145.778 66.625C145.532 66.875 145.15 67 144.633 67ZM148.383 62.65C148.29 62.65 148.208 62.615 148.138 62.545C148.068 62.475 148.033 62.3933 148.033 62.3C148.033 62.2033 148.068 62.1217 148.138 62.055C148.208 61.985 148.29 61.95 148.383 61.95H151.143C151.24 61.95 151.322 61.985 151.388 62.055C151.458 62.1217 151.493 62.2033 151.493 62.3C151.493 62.3933 151.458 62.475 151.388 62.545C151.322 62.615 151.24 62.65 151.143 62.65H148.383ZM157.49 59.93C157.77 59.93 157.91 60.07 157.91 60.35V64.58C157.91 64.86 157.77 65 157.49 65C157.21 65 157.07 64.86 157.07 64.58V64.415C156.717 64.805 156.197 65 155.51 65H155.23C154.567 65 154.073 64.84 153.75 64.52C153.43 64.1967 153.27 63.7033 153.27 63.04V60.35C153.27 60.07 153.41 59.93 153.69 59.93C153.97 59.93 154.11 60.07 154.11 60.35V63.04C154.11 63.4733 154.188 63.7683 154.345 63.925C154.505 64.0817 154.8 64.16 155.23 64.16H155.51C155.91 64.16 156.258 64.1133 156.555 64.02C156.855 63.9267 157.027 63.7833 157.07 63.59V60.35C157.07 60.07 157.21 59.93 157.49 59.93Z" fill="#173B45"/>
<path d="M144.812 27.0135L144.857 22.5325L152.685 21.7442C153.042 21.7299 153.399 21.7882 153.733 21.9158C154.067 22.0433 154.372 22.2374 154.629 22.4862C154.886 22.735 155.09 23.0334 155.228 23.3633C155.366 23.6932 155.436 24.0478 155.433 24.4054C155.43 24.7633 155.353 25.1167 155.209 25.4442C155.065 25.7717 154.855 26.0663 154.593 26.3103C154.331 26.5542 154.023 26.7424 153.686 26.8633C153.349 26.9842 152.991 27.0353 152.634 27.0135L144.812 27.0135Z" fill="#FF8225"/>
<path d="M131.897 31.9035L130.893 30.3074L128.79 31.2151L129.019 32.9079L131.897 31.9035Z" fill="#FF8225"/>
<path d="M132.538 28.9591L130.898 30.309L132.337 31.6332L137.246 28.3584L132.538 28.9591Z" fill="#FF8225"/>
<path d="M128.79 31.2149L128.624 32.9731L126.205 32.5284L126.37 31.5919L128.79 31.2149Z" fill="#FF8225"/>
<path d="M130.893 30.3074L132.264 31.5661L131.844 31.8179L130.893 30.3074Z" fill="#173B45"/>
<path d="M128.79 31.2151L129.004 32.8015L128.638 32.8481L128.79 31.2151Z" fill="#173B45"/>
<path opacity="0.1" d="M132.466 31.1134C132.554 31.1179 132.642 31.0955 132.717 31.049C132.792 31.0025 132.851 30.9343 132.886 30.8533C132.922 30.7724 132.931 30.6826 132.914 30.596C132.897 30.5093 132.854 30.4299 132.791 30.3683C132.728 30.3067 132.647 30.2659 132.56 30.2512C132.473 30.2366 132.384 30.2489 132.304 30.2864C132.224 30.3239 132.157 30.3849 132.113 30.4612C132.068 30.5375 132.048 30.6256 132.055 30.7136C132.063 30.819 132.109 30.918 132.184 30.9917C132.26 31.0654 132.36 31.1088 132.466 31.1134ZM132.415 30.362C132.478 30.3673 132.537 30.3905 132.587 30.4287C132.637 30.4669 132.675 30.5186 132.696 30.5776C132.717 30.6366 132.721 30.7004 132.707 30.7615C132.693 30.8227 132.661 30.8785 132.617 30.9223C132.572 30.9662 132.515 30.9963 132.454 31.009C132.393 31.0217 132.329 31.0166 132.27 30.9941C132.212 30.9717 132.161 30.9329 132.124 30.8824C132.087 30.8319 132.065 30.7718 132.061 30.7092C132.057 30.6621 132.064 30.6149 132.081 30.5708C132.098 30.5266 132.124 30.4867 132.158 30.4536C132.191 30.4206 132.232 30.3953 132.276 30.3795C132.321 30.3637 132.368 30.3577 132.415 30.362Z" fill="black"/>
<path opacity="0.1" d="M129.562 32.5958C129.648 32.6119 129.737 32.6014 129.818 32.5656C129.898 32.5297 129.965 32.4703 130.011 32.3952C130.057 32.3201 130.078 32.2328 130.073 32.1451C130.068 32.0573 130.036 31.9732 129.982 31.904C129.928 31.8347 129.854 31.7836 129.77 31.7575C129.686 31.7313 129.596 31.7313 129.512 31.7575C129.428 31.7837 129.355 31.8349 129.3 31.9041C129.246 31.9734 129.215 32.0575 129.209 32.1452C129.203 32.2503 129.236 32.3541 129.301 32.437C129.365 32.5199 129.458 32.5764 129.562 32.5958ZM129.604 31.8445C129.665 31.8574 129.721 31.8877 129.766 31.9317C129.811 31.9757 129.842 32.0316 129.856 32.0928C129.87 32.154 129.866 32.2179 129.844 32.2768C129.823 32.3358 129.785 32.3874 129.735 32.4254C129.685 32.4634 129.625 32.4864 129.563 32.4914C129.5 32.4965 129.438 32.4835 129.382 32.454C129.327 32.4245 129.281 32.3797 129.251 32.325C129.22 32.2702 129.206 32.2079 129.209 32.1452C129.212 32.0983 129.225 32.0525 129.247 32.0109C129.269 31.9694 129.3 31.9332 129.338 31.9046C129.375 31.8761 129.418 31.8559 129.464 31.8456C129.51 31.8352 129.558 31.8348 129.604 31.8445Z" fill="black"/>
<path d="M128.341 20.3185L128.24 22.2423L125.487 22.6549L124.986 21.0621L128.341 20.3185Z" fill="#FF8225"/>
<path d="M133.015 23.6599L128.24 22.2422L128.834 20.3777L134.164 21.2361L133.015 23.6599Z" fill="#FF8225"/>
<path d="M125.487 22.6547L124.609 21.1682L122.248 23.0068L122.918 23.7473L125.487 22.6547Z" fill="#FF8225"/>
<path d="M128.24 22.2421L128.788 20.5206L128.333 20.4599L128.24 22.2421Z" fill="#173B45"/>
<path d="M125.487 22.6547L125.018 21.1629L124.675 21.273L125.487 22.6547Z" fill="#173B45"/>
<path opacity="0.1" d="M129.2 21.4922C129.271 21.5388 129.355 21.5625 129.441 21.5602C129.526 21.5579 129.609 21.5297 129.677 21.4794C129.746 21.4291 129.798 21.359 129.826 21.2784C129.855 21.1978 129.858 21.1106 129.835 21.0283C129.812 20.946 129.765 20.8726 129.7 20.8177C129.635 20.7628 129.554 20.7291 129.469 20.7211C129.384 20.713 129.299 20.731 129.224 20.7726C129.15 20.8143 129.09 20.8776 129.052 20.9542C129.007 21.0466 128.998 21.152 129.025 21.2509C129.052 21.3499 129.114 21.4356 129.2 21.4922ZM129.2 21.4922C129.151 21.4584 129.112 21.4111 129.088 21.3561C129.065 21.301 129.057 21.2404 129.067 21.1813C129.077 21.1222 129.103 21.0671 129.143 21.0224C129.183 20.9776 129.234 20.9452 129.292 20.9288C129.349 20.9123 129.41 20.9126 129.468 20.9296C129.525 20.9466 129.577 20.9796 129.616 21.0248C129.655 21.0699 129.681 21.1253 129.69 21.1845C129.699 21.2437 129.691 21.3042 129.667 21.359C129.648 21.4011 129.62 21.4385 129.585 21.4686C129.55 21.4988 129.509 21.5209 129.464 21.5336C129.42 21.5463 129.373 21.5491 129.328 21.542C129.282 21.5348 129.238 21.5179 129.2 21.4922Z" fill="black"/>
<path opacity="0.1" d="M125.623 21.7859C125.694 21.8325 125.778 21.8562 125.864 21.8539C125.949 21.8516 126.032 21.8235 126.101 21.7731C126.169 21.7228 126.221 21.6527 126.25 21.5721C126.278 21.4915 126.281 21.4043 126.258 21.322C126.235 21.2397 126.188 21.1663 126.123 21.1114C126.058 21.0565 125.977 21.0228 125.892 21.0148C125.807 21.0067 125.722 21.0247 125.647 21.0664C125.573 21.108 125.513 21.1713 125.475 21.2479C125.43 21.3401 125.42 21.4458 125.447 21.5449C125.474 21.6441 125.537 21.7298 125.623 21.7859ZM125.623 21.7859C125.573 21.7522 125.534 21.705 125.511 21.6499C125.487 21.5948 125.479 21.5341 125.489 21.4748C125.499 21.4156 125.525 21.3604 125.565 21.3155C125.605 21.2707 125.656 21.2382 125.714 21.2217C125.772 21.2053 125.833 21.2057 125.89 21.2228C125.948 21.2399 125.999 21.2731 126.039 21.3184C126.078 21.3637 126.104 21.4193 126.112 21.4786C126.121 21.538 126.113 21.5986 126.089 21.6534C126.069 21.6952 126.041 21.7323 126.006 21.7622C125.971 21.7921 125.93 21.8141 125.886 21.8267C125.842 21.8393 125.796 21.8422 125.75 21.8351C125.705 21.8281 125.661 21.8113 125.623 21.7859Z" fill="black"/>
<path opacity="0.1" d="M122.707 23.5154L122.917 23.7483L125.487 22.6549L128.24 22.2423L133.015 23.66L134.1 21.3801L133.713 21.2884L129.78 21.3958L129.656 21.3981L129.118 21.414L128.496 21.4294L128.281 21.4347L127.317 21.4615L125.367 22.274L125.286 22.3105L122.707 23.5154Z" fill="black"/>
<path d="M126.25 24.8754L126.69 26.7517L123.885 27.8711L122.962 26.4807L126.25 24.8754Z" fill="#FF8225"/>
<path d="M131.67 26.7835L126.69 26.752L126.741 24.7959L132.1 24.1371L131.67 26.7835Z" fill="#FF8225"/>
<path d="M123.884 27.8715L122.629 26.6881L120.48 28.7149L121.328 29.2402L123.884 27.8715Z" fill="#FF8225"/>
<path d="M126.69 26.7518L126.737 24.9468L126.282 25.0142L126.69 26.7518Z" fill="#173B45"/>
<path d="M123.884 27.8712L123.019 26.5681L122.719 26.7703L123.884 27.8712Z" fill="#173B45"/>
<path opacity="0.1" d="M127.315 25.6834C127.387 25.7297 127.471 25.7531 127.556 25.7506C127.641 25.7481 127.724 25.7198 127.792 25.6694C127.861 25.619 127.913 25.5489 127.941 25.4684C127.969 25.3879 127.972 25.3008 127.949 25.2186C127.927 25.1364 127.879 25.063 127.814 25.0082C127.749 24.9534 127.669 24.9197 127.584 24.9115C127.499 24.9034 127.414 24.9213 127.339 24.9628C127.265 25.0042 127.204 25.0673 127.167 25.1437C127.122 25.2365 127.113 25.3422 127.14 25.4413C127.168 25.5404 127.23 25.6263 127.315 25.6834ZM127.315 25.6834C127.265 25.6496 127.226 25.6022 127.202 25.5467C127.178 25.4913 127.17 25.4302 127.18 25.3706C127.189 25.311 127.216 25.2553 127.256 25.2102C127.296 25.165 127.348 25.1322 127.406 25.1157C127.464 25.0991 127.526 25.0995 127.583 25.1167C127.641 25.1339 127.693 25.1673 127.733 25.213C127.772 25.2586 127.798 25.3146 127.807 25.3743C127.816 25.434 127.807 25.495 127.782 25.5502C127.763 25.5918 127.735 25.6288 127.7 25.6586C127.664 25.6884 127.623 25.7104 127.579 25.723C127.535 25.7356 127.488 25.7386 127.443 25.7318C127.397 25.7249 127.354 25.7084 127.315 25.6834Z" fill="black"/>
<path opacity="0.1" d="M123.697 27.0096C123.768 27.0565 123.852 27.0807 123.937 27.0788C124.022 27.077 124.105 27.0493 124.174 26.9994C124.243 26.9494 124.296 26.8797 124.324 26.7993C124.353 26.7189 124.356 26.6318 124.334 26.5494C124.312 26.467 124.265 26.3932 124.2 26.338C124.135 26.2827 124.055 26.2485 123.97 26.2399C123.885 26.2313 123.8 26.2487 123.725 26.2898C123.65 26.3309 123.59 26.3938 123.552 26.4701C123.507 26.5623 123.496 26.6678 123.523 26.767C123.549 26.8663 123.611 26.9524 123.697 27.0096ZM123.697 27.0096C123.647 26.9757 123.607 26.9283 123.583 26.8729C123.559 26.8175 123.552 26.7564 123.561 26.6968C123.571 26.6372 123.597 26.5815 123.637 26.5364C123.677 26.4912 123.729 26.4584 123.787 26.4418C123.845 26.4253 123.907 26.4257 123.965 26.4429C124.023 26.4601 124.074 26.4935 124.114 26.5392C124.153 26.5848 124.179 26.6408 124.188 26.7005C124.197 26.7602 124.188 26.8212 124.164 26.8764C124.144 26.9182 124.116 26.9554 124.081 26.9854C124.046 27.0153 124.005 27.0374 123.961 27.0501C123.916 27.0627 123.87 27.0656 123.824 27.0586C123.779 27.0517 123.735 27.0349 123.697 27.0096Z" fill="black"/>
<path opacity="0.1" d="M128.123 26.761L131.669 26.7834L131.8 25.9812L128.123 26.761Z" fill="black"/>
<path d="M126.57 27.9457L127.394 29.6867L124.885 31.37L123.69 30.203L126.57 27.9457Z" fill="#FF8225"/>
<path d="M131.927 28.8641L127.394 29.6868L127.033 27.7638L131.793 26.1862L131.927 28.8641Z" fill="#FF8225"/>
<path d="M124.885 31.37L123.41 30.4756L121.86 32.7214L122.673 33.2437L124.885 31.37Z" fill="#FF8225"/>
<path d="M127.393 29.6866L127.061 27.9114L126.631 28.0733L127.393 29.6866Z" fill="#173B45"/>
<path d="M124.885 31.3698L123.766 30.2763L123.517 30.5371L124.885 31.3698Z" fill="#173B45"/>
<path opacity="0.1" d="M127.736 28.4423C127.808 28.4889 127.892 28.5126 127.977 28.5103C128.062 28.508 128.145 28.4798 128.214 28.4295C128.283 28.3792 128.335 28.309 128.363 28.2285C128.391 28.1479 128.394 28.0607 128.371 27.9784C128.349 27.8961 128.302 27.8227 128.236 27.7678C128.171 27.7129 128.09 27.6792 128.005 27.6712C127.92 27.6631 127.835 27.6811 127.761 27.7227C127.686 27.7644 127.626 27.8277 127.588 27.9042C127.544 27.9966 127.534 28.1021 127.561 28.201C127.589 28.3 127.651 28.3857 127.736 28.4423ZM127.736 28.4423C127.686 28.4085 127.647 28.3611 127.623 28.3057C127.599 28.2503 127.591 28.1892 127.601 28.1295C127.61 28.0699 127.637 28.0142 127.677 27.9691C127.717 27.9239 127.769 27.8911 127.827 27.8746C127.885 27.858 127.947 27.8584 128.004 27.8756C128.062 27.8929 128.114 27.9263 128.154 27.9719C128.193 28.0175 128.219 28.0735 128.228 28.1332C128.237 28.193 128.228 28.254 128.203 28.3091C128.184 28.3511 128.156 28.3885 128.121 28.4187C128.086 28.4488 128.045 28.471 128.001 28.4837C127.956 28.4963 127.91 28.4992 127.864 28.4921C127.818 28.4849 127.775 28.4679 127.736 28.4423Z" fill="black"/>
<path opacity="0.1" d="M124.405 30.4949C124.476 30.5415 124.56 30.5652 124.646 30.5629C124.731 30.5606 124.814 30.5324 124.883 30.4821C124.951 30.4318 125.003 30.3617 125.032 30.2811C125.06 30.2005 125.063 30.1133 125.04 30.031C125.017 29.9487 124.97 29.8753 124.905 29.8204C124.84 29.7655 124.759 29.7318 124.674 29.7238C124.589 29.7157 124.504 29.7337 124.429 29.7753C124.355 29.817 124.295 29.8803 124.257 29.9568C124.212 30.0492 124.202 30.1547 124.229 30.2538C124.257 30.3528 124.319 30.4385 124.405 30.4949ZM124.405 30.4949C124.355 30.4611 124.316 30.4137 124.292 30.3583C124.268 30.3029 124.26 30.2418 124.269 30.1821C124.279 30.1225 124.305 30.0669 124.345 30.0217C124.385 29.9765 124.438 29.9437 124.496 29.9272C124.554 29.9106 124.615 29.911 124.673 29.9282C124.731 29.9455 124.783 29.9789 124.822 30.0245C124.862 30.0701 124.888 30.1261 124.896 30.1858C124.905 30.2456 124.897 30.3066 124.872 30.3617C124.853 30.4038 124.825 30.4411 124.79 30.4713C124.755 30.5014 124.714 30.5236 124.669 30.5363C124.625 30.549 124.578 30.5518 124.533 30.5447C124.487 30.5375 124.443 30.5205 124.405 30.4949Z" fill="black"/>
<path d="M126.017 22.5159L126.396 24.4042L123.734 25.2768L122.856 23.8566L126.017 22.5159Z" fill="#FF8225"/>
<path d="M131.373 24.5978L126.397 24.4044L126.51 22.4526L131.887 21.9666L131.373 24.5978Z" fill="#FF8225"/>
<path d="M123.733 25.2768L122.517 24.0533L120.441 26.1643L121.273 26.7175L123.733 25.2768Z" fill="#FF8225"/>
<path d="M126.396 24.4044L126.501 22.6019L126.046 22.6561L126.396 24.4044Z" fill="#173B45"/>
<path d="M123.733 25.2769L122.911 23.9471L122.606 24.1383L123.733 25.2769Z" fill="#173B45"/>
<path opacity="0.1" d="M126.953 23.3266C127.025 23.3721 127.109 23.3947 127.194 23.3915C127.279 23.3883 127.36 23.3594 127.428 23.3086C127.496 23.2578 127.547 23.1876 127.575 23.1071C127.602 23.0267 127.604 22.9399 127.581 22.8583C127.557 22.7766 127.51 22.7039 127.444 22.6499C127.379 22.5959 127.299 22.563 127.214 22.5557C127.129 22.5483 127.045 22.5669 126.971 22.6088C126.897 22.6508 126.838 22.7142 126.801 22.7906C126.757 22.8833 126.748 22.9887 126.776 23.0873C126.804 23.186 126.867 23.271 126.953 23.3266ZM126.953 23.3266C126.904 23.2931 126.865 23.2462 126.841 23.1913C126.817 23.1364 126.809 23.0758 126.818 23.0166C126.827 22.9574 126.853 22.902 126.892 22.857C126.932 22.812 126.984 22.7791 127.041 22.7623C127.098 22.7454 127.16 22.7453 127.217 22.7619C127.275 22.7786 127.326 22.8112 127.366 22.8561C127.406 22.901 127.432 22.9563 127.441 23.0154C127.451 23.0746 127.443 23.1352 127.419 23.1902C127.4 23.2321 127.372 23.2694 127.337 23.2996C127.303 23.3298 127.262 23.3521 127.217 23.365C127.173 23.378 127.127 23.3812 127.081 23.3746C127.036 23.368 126.992 23.3516 126.953 23.3266Z" fill="black"/>
<path opacity="0.1" d="M123.539 24.4348C123.61 24.4808 123.695 24.5038 123.78 24.5008C123.865 24.4978 123.947 24.469 124.016 24.4182C124.084 24.3674 124.136 24.297 124.163 24.2163C124.191 24.1356 124.193 24.0484 124.17 23.9663C124.147 23.8843 124.099 23.8112 124.034 23.7567C123.968 23.7023 123.887 23.6691 123.802 23.6615C123.717 23.654 123.632 23.6724 123.558 23.7144C123.484 23.7564 123.424 23.8199 123.387 23.8966C123.343 23.9895 123.334 24.0952 123.362 24.1941C123.39 24.293 123.453 24.3785 123.539 24.4348ZM123.539 24.4348C123.501 24.4136 123.468 24.3849 123.441 24.3504C123.415 24.316 123.396 24.2764 123.386 24.2344C123.375 24.1923 123.374 24.1485 123.381 24.1057C123.388 24.0629 123.404 24.0221 123.427 23.9857C123.451 23.9493 123.482 23.9181 123.518 23.8941C123.554 23.87 123.595 23.8537 123.637 23.846C123.68 23.8383 123.724 23.8394 123.766 23.8493C123.808 23.8592 123.848 23.8776 123.883 23.9035C123.946 23.9437 123.994 24.0053 124.016 24.0773C124.039 24.1492 124.035 24.2268 124.005 24.2962C123.986 24.3382 123.958 24.3757 123.923 24.406C123.889 24.4363 123.848 24.4588 123.804 24.4719C123.759 24.4851 123.713 24.4886 123.667 24.4822C123.621 24.4758 123.577 24.4596 123.539 24.4348Z" fill="black"/>
<path opacity="0.1" d="M127.256 24.4377L131.373 24.5976L131.533 23.7805L127.256 24.4377Z" fill="black"/>
<path d="M138.069 21.5473L131.091 20.4095L130.99 29.1203L137.961 27.9483L138.069 21.5473Z" fill="#FF8225"/>
<path opacity="0.1" d="M138.069 21.5473L131.091 20.4095L130.99 29.1203L137.961 27.9483L138.069 21.5473Z" fill="black"/>
<path d="M138.484 21.492L132.801 20.3836L132.538 28.9591L138.362 28.2149L138.484 21.492Z" fill="#FF8225"/>
<path opacity="0.1" d="M133.497 21.9194C133.568 21.9651 133.652 21.9882 133.737 21.9855C133.821 21.9828 133.903 21.9544 133.972 21.9042C134.04 21.8539 134.091 21.7841 134.119 21.7041C134.147 21.624 134.15 21.5374 134.127 21.4556C134.105 21.3739 134.058 21.301 133.993 21.2464C133.928 21.1918 133.848 21.1582 133.764 21.15C133.68 21.1417 133.595 21.1593 133.52 21.2003C133.446 21.2413 133.386 21.3039 133.348 21.3797C133.303 21.4723 133.293 21.5784 133.32 21.6779C133.347 21.7774 133.41 21.8633 133.497 21.9194ZM133.497 21.9194C133.447 21.8857 133.407 21.8383 133.383 21.7829C133.359 21.7274 133.351 21.6662 133.361 21.6065C133.37 21.5467 133.396 21.4909 133.436 21.4456C133.477 21.4004 133.529 21.3675 133.587 21.351C133.645 21.3344 133.707 21.3348 133.765 21.3522C133.823 21.3696 133.875 21.4031 133.914 21.4489C133.954 21.4948 133.979 21.5509 133.988 21.6108C133.996 21.6707 133.988 21.7318 133.963 21.7869C133.943 21.8284 133.915 21.8653 133.88 21.8951C133.845 21.9248 133.804 21.9467 133.76 21.9593C133.716 21.9718 133.67 21.9748 133.624 21.9679C133.579 21.961 133.536 21.9445 133.497 21.9194Z" fill="black"/>
<path opacity="0.1" d="M133.384 24.0408C133.455 24.0869 133.538 24.1102 133.623 24.1077C133.708 24.1052 133.79 24.077 133.859 24.0268C133.927 23.9766 133.979 23.9069 134.007 23.8267C134.034 23.7466 134.037 23.6598 134.015 23.578C133.992 23.4962 133.946 23.4231 133.881 23.3685C133.816 23.3139 133.736 23.2803 133.651 23.2721C133.567 23.264 133.482 23.2816 133.408 23.3228C133.333 23.364 133.273 23.4268 133.236 23.5028C133.191 23.5952 133.182 23.7006 133.209 23.7996C133.236 23.8985 133.298 23.9842 133.384 24.0408ZM133.384 24.0408C133.334 24.0071 133.295 23.9599 133.271 23.9048C133.248 23.8497 133.24 23.789 133.25 23.7298C133.259 23.6705 133.286 23.6153 133.325 23.5705C133.365 23.5256 133.417 23.4931 133.475 23.4767C133.532 23.4603 133.594 23.4606 133.651 23.4777C133.709 23.4949 133.76 23.528 133.799 23.5733C133.839 23.6187 133.864 23.6742 133.873 23.7336C133.882 23.7929 133.874 23.8535 133.849 23.9083C133.83 23.9501 133.802 23.9872 133.767 24.0171C133.732 24.047 133.691 24.069 133.647 24.0816C133.603 24.0942 133.556 24.0971 133.511 24.0901C133.465 24.083 133.422 24.0662 133.384 24.0408Z" fill="black"/>
<path opacity="0.1" d="M133.268 26.163C133.34 26.2096 133.424 26.2333 133.509 26.231C133.595 26.2287 133.677 26.2005 133.746 26.1502C133.815 26.0999 133.867 26.0297 133.895 25.9492C133.923 25.8686 133.926 25.7814 133.904 25.6991C133.881 25.6168 133.834 25.5434 133.768 25.4885C133.703 25.4336 133.623 25.3999 133.538 25.3919C133.453 25.3838 133.367 25.4018 133.293 25.4434C133.218 25.4851 133.158 25.5484 133.121 25.6249C133.076 25.7173 133.066 25.8228 133.094 25.9217C133.121 26.0207 133.183 26.1064 133.268 26.163ZM133.268 26.163C133.218 26.1292 133.179 26.0818 133.155 26.0264C133.131 25.971 133.123 25.9099 133.133 25.8502C133.143 25.7906 133.169 25.735 133.209 25.6898C133.249 25.6446 133.301 25.6118 133.359 25.5953C133.417 25.5787 133.479 25.5791 133.537 25.5963C133.595 25.6136 133.646 25.647 133.686 25.6926C133.725 25.7382 133.751 25.7942 133.76 25.8539C133.769 25.9137 133.76 25.9747 133.736 26.0298C133.716 26.0716 133.688 26.1088 133.653 26.1388C133.618 26.1688 133.577 26.1908 133.533 26.2035C133.488 26.2161 133.442 26.2191 133.396 26.2121C133.351 26.2051 133.307 26.1883 133.268 26.163Z" fill="black"/>
<path opacity="0.1" d="M133.156 28.2862C133.228 28.3325 133.312 28.3559 133.397 28.3534C133.482 28.3509 133.565 28.3226 133.633 28.2722C133.702 28.2218 133.754 28.1517 133.782 28.0712C133.81 27.9907 133.813 27.9035 133.79 27.8214C133.768 27.7392 133.721 27.6658 133.655 27.611C133.59 27.5561 133.51 27.5224 133.425 27.5143C133.34 27.5062 133.255 27.5241 133.18 27.5655C133.106 27.607 133.046 27.6701 133.008 27.7465C132.962 27.8391 132.952 27.9451 132.98 28.0445C133.007 28.1439 133.07 28.2299 133.156 28.2862ZM133.156 28.2862C133.106 28.2523 133.067 28.2049 133.043 28.1495C133.019 28.0941 133.011 28.033 133.021 27.9734C133.03 27.9138 133.057 27.8581 133.097 27.813C133.137 27.7678 133.189 27.735 133.247 27.7184C133.305 27.7019 133.367 27.7023 133.425 27.7195C133.482 27.7367 133.534 27.7701 133.574 27.8158C133.613 27.8614 133.639 27.9174 133.648 27.9771C133.657 28.0368 133.648 28.0978 133.624 28.1529C133.604 28.1946 133.576 28.2316 133.541 28.2614C133.506 28.2912 133.464 28.3132 133.42 28.3258C133.376 28.3384 133.329 28.3414 133.284 28.3346C133.238 28.3277 133.195 28.3112 133.156 28.2862Z" fill="black"/>
<path d="M143.237 27.8003L143.298 21.7142L144.864 21.7297L144.804 27.8158L143.237 27.8003Z" fill="#455A64"/>
<path d="M140.335 26.9281L140.378 22.5311L143.288 22.5599L143.244 26.9568L140.335 26.9281Z" fill="#173B45"/>
<path d="M137.236 29.0831L137.323 20.2565L140.405 20.2869L140.318 29.1136L137.236 29.0831Z" fill="#455A64"/>
<path d="M138.842 22.7407C138.692 22.7394 138.545 22.6935 138.421 22.6089C138.296 22.5242 138.2 22.4046 138.144 22.2651C138.087 22.1257 138.074 21.9726 138.104 21.8254C138.135 21.6781 138.209 21.5433 138.316 21.438C138.423 21.3326 138.56 21.2615 138.707 21.2336C138.855 21.2057 139.008 21.2223 139.146 21.2812C139.285 21.3401 139.403 21.4388 139.485 21.5647C139.567 21.6907 139.61 21.8381 139.609 21.9885C139.608 22.0883 139.587 22.1869 139.548 22.2787C139.509 22.3705 139.453 22.4538 139.381 22.5236C139.31 22.5935 139.226 22.6486 139.133 22.6859C139.041 22.7231 138.942 22.7417 138.842 22.7407Z" fill="#173B45"/>
<path d="M138.791 28.1572C138.641 28.1556 138.494 28.1095 138.37 28.0247C138.246 27.9399 138.15 27.8202 138.094 27.6807C138.038 27.5413 138.024 27.3883 138.055 27.2412C138.086 27.0941 138.16 26.9594 138.267 26.8542C138.374 26.749 138.511 26.6779 138.658 26.6501C138.806 26.6222 138.959 26.6388 139.097 26.6976C139.235 26.7565 139.353 26.8551 139.435 26.9809C139.518 27.1067 139.561 27.254 139.559 27.4043C139.558 27.5042 139.538 27.6029 139.499 27.6948C139.459 27.7867 139.403 27.87 139.331 27.9399C139.26 28.0098 139.175 28.065 139.083 28.1023C138.99 28.1396 138.891 28.1582 138.791 28.1572Z" fill="#173B45"/>
<path d="M156.068 27.1086L140.451 38.8485C140.123 39.0949 139.75 39.2743 139.353 39.3764C138.956 39.4786 138.542 39.5015 138.136 39.4438C137.73 39.3862 137.34 39.2491 136.987 39.0404C136.634 38.8317 136.325 38.5556 136.079 38.2276C135.581 37.567 135.366 36.7359 135.481 35.9166C135.595 35.0974 136.03 34.3571 136.69 33.8584L152.316 22.1163C152.643 21.87 153.017 21.6906 153.414 21.5884C153.811 21.4863 154.224 21.4634 154.63 21.521C155.036 21.5787 155.427 21.7158 155.78 21.9244C156.133 22.1331 156.441 22.4093 156.688 22.7372C156.934 23.0649 157.113 23.4379 157.216 23.8349C157.318 24.2319 157.341 24.6452 157.283 25.0512C157.226 25.4571 157.089 25.8477 156.881 26.2007C156.672 26.5538 156.396 26.8623 156.068 27.1086Z" fill="#173B45"/>
<path d="M147.264 33.7523L131.647 45.4922C131.319 45.7386 130.946 45.9179 130.549 46.0201C130.151 46.1222 129.738 46.1452 129.332 46.0875C128.926 46.0298 128.535 45.8928 128.182 45.6841C127.829 45.4754 127.521 45.1992 127.275 44.8713C126.777 44.2107 126.562 43.3795 126.676 42.5603C126.791 41.7411 127.226 41.0008 127.886 40.5021L143.511 28.76C143.839 28.5136 144.212 28.3342 144.609 28.2321C145.006 28.1299 145.42 28.107 145.826 28.1647C146.232 28.2223 146.622 28.3594 146.975 28.5681C147.328 28.7768 147.637 29.053 147.883 29.3809C148.129 29.7085 148.309 30.0815 148.411 30.4786C148.513 30.8756 148.536 31.2889 148.479 31.6948C148.421 32.1008 148.285 32.4914 148.076 32.8444C147.868 33.1974 147.592 33.5059 147.264 33.7523Z" fill="#173B45"/>
<path d="M154.393 23.3928C154.622 23.4162 154.84 23.507 155.018 23.6539C155.195 23.8008 155.326 23.9972 155.392 24.2181C155.458 24.4391 155.458 24.6747 155.39 24.8953C155.323 25.1159 155.191 25.3115 155.013 25.4575C154.834 25.6034 154.616 25.6931 154.387 25.7153C154.157 25.7374 153.926 25.691 153.723 25.5819C153.519 25.4728 153.353 25.3059 153.245 25.1023C153.136 24.8987 153.09 24.6675 153.113 24.438C153.128 24.2853 153.174 24.1371 153.246 24.0019C153.319 23.8666 153.417 23.7471 153.536 23.65C153.655 23.5529 153.792 23.4802 153.939 23.4361C154.086 23.3919 154.24 23.3772 154.393 23.3928Z" fill="#263238"/>
<path d="M127.53 46.3529C127.307 46.4089 127.072 46.3976 126.855 46.3203C126.638 46.243 126.449 46.1032 126.312 45.9185C126.174 45.7338 126.095 45.5126 126.083 45.2827C126.071 45.0528 126.128 44.8245 126.245 44.6267C126.363 44.4289 126.537 44.2704 126.745 44.1712C126.952 44.072 127.185 44.0366 127.413 44.0694C127.64 44.1022 127.853 44.2018 128.025 44.3555C128.196 44.5093 128.318 44.7103 128.375 44.9333C128.413 45.082 128.422 45.2368 128.4 45.3887C128.378 45.5407 128.326 45.6868 128.248 45.8188C128.169 45.9507 128.065 46.0658 127.942 46.1574C127.819 46.2491 127.679 46.3155 127.53 46.3529Z" fill="#263238"/>
<path d="M151.313 35.6628C153.177 35.6347 154.987 36.2927 156.397 37.5117C157.808 38.7306 158.722 40.4255 158.964 42.2741C159.207 44.1227 158.762 45.9959 157.714 47.5377C156.665 49.0794 155.087 50.1822 153.278 50.6361L150.498 50.0587L144.202 40.9209C144.69 39.412 145.639 38.0938 146.914 37.1509C148.189 36.208 149.727 35.6876 151.313 35.6628Z" fill="#263238"/>
<path d="M122.983 45.0546C123.002 46.1438 123.432 47.1855 124.187 47.9702C124.943 48.7549 125.968 49.2244 127.055 49.2842L150.958 49.2842C151.79 49.3298 152.622 49.2035 153.403 48.9133C154.184 48.623 154.897 48.175 155.498 47.5972C156.098 47.0194 156.573 46.3241 156.892 45.5547C157.212 44.7854 157.37 43.9584 157.356 43.1253C157.342 42.293 157.157 41.4725 156.812 40.7149C156.468 39.9572 155.971 39.2785 155.353 38.7211C154.735 38.1636 154.008 37.7393 153.219 37.4744C152.43 37.2096 151.595 37.1099 150.766 37.1816L126.919 40.6992C125.834 40.7934 124.825 41.295 124.095 42.103C123.365 42.9111 122.967 43.9656 122.983 45.0546Z" fill="#FF8225"/>
<path d="M156.401 48.2302C157.435 47.2359 158.135 45.9452 158.405 44.5362C158.675 43.1271 158.501 41.669 157.908 40.3629C157.314 39.0567 156.33 37.9668 155.091 37.2433C153.853 36.5198 152.42 36.1984 150.991 36.3234L150.62 36.3692L131.793 39.3025L126.827 39.8396C125.529 39.9612 124.325 40.5684 123.456 41.5399C122.586 42.5113 122.116 43.7752 122.139 45.0786C122.162 46.382 122.676 47.6287 123.578 48.5692C124.481 49.5096 125.706 50.0744 127.007 50.1505L150.834 50.1216L151.193 50.1505C152.146 50.2046 153.1 50.062 153.996 49.7317C154.892 49.4013 155.711 48.8903 156.401 48.2302ZM124.889 47.4295C124.806 47.3582 124.731 47.2779 124.666 47.19C124.599 47.1171 124.537 47.0391 124.482 46.9567C124.342 46.7643 124.225 46.5568 124.131 46.3381C124.09 46.2465 124.054 46.1525 124.023 46.0567C123.987 45.9511 123.956 45.8437 123.931 45.7349C123.921 45.7207 123.925 45.6953 123.919 45.672C123.9 45.5805 123.885 45.486 123.873 45.3958C123.858 45.282 123.849 45.1673 123.846 45.0525C123.843 44.9506 123.847 44.8487 123.858 44.7473C123.857 44.6966 123.862 44.6459 123.873 44.5964C123.877 44.5244 123.887 44.4529 123.904 44.3827C123.908 44.3471 123.915 44.312 123.925 44.2777C123.939 44.1968 123.959 44.1172 123.985 44.0396C124.007 43.9547 124.034 43.8716 124.067 43.7907C124.067 43.7873 124.067 43.7839 124.068 43.7806C124.069 43.7774 124.071 43.7744 124.073 43.7719C124.085 43.7345 124.1 43.6979 124.117 43.6622C124.139 43.6064 124.166 43.552 124.195 43.4994C124.218 43.4467 124.244 43.3956 124.274 43.3467C124.311 43.2764 124.352 43.2087 124.398 43.1439C124.454 43.051 124.518 42.9628 124.589 42.8804C124.652 42.7909 124.724 42.7087 124.805 42.6352C124.879 42.5546 124.959 42.4794 125.044 42.4102C125.586 41.935 126.264 41.6434 126.982 41.5772L131.074 41.1371L150.648 38.1082L151.162 38.0539L151.242 38.0527C151.339 38.0445 151.44 38.0358 151.543 38.0361C151.778 38.0321 152.013 38.0435 152.247 38.0703L152.45 38.1016C152.579 38.1216 152.705 38.1498 152.83 38.1789L152.862 38.1885C154.07 38.489 155.131 39.213 155.851 40.229C156.571 41.245 156.902 42.4855 156.785 43.7252C156.669 44.9649 156.111 46.1216 155.214 46.9851C154.316 47.8485 153.139 48.3615 151.896 48.4309C151.881 48.4342 151.866 48.4356 151.851 48.4349L151.829 48.4372C151.659 48.4455 151.489 48.4414 151.312 48.4336C151.226 48.4302 151.145 48.4252 151.064 48.414L150.814 48.3954L127.122 48.4279C126.395 48.3886 125.7 48.1159 125.14 47.6504C125.051 47.5837 124.967 47.5098 124.889 47.4295Z" fill="#FF8225"/>
<path opacity="0.1" d="M156.376 48.2301C157.411 47.2357 158.111 45.9451 158.381 44.536C158.651 43.127 158.477 41.6689 157.884 40.3627C157.29 39.0566 156.306 37.9666 155.067 37.2431C153.828 36.5197 152.396 36.1983 150.966 36.3232L150.596 36.3691L131.793 39.3024L126.827 39.8395C125.529 39.9611 124.325 40.5683 123.456 41.5398C122.586 42.5112 122.116 43.7751 122.139 45.0785C122.162 46.3819 122.676 47.6286 123.578 48.569C124.481 49.5095 125.706 50.0743 127.007 50.1504L150.81 50.1214L151.169 50.1504C152.122 50.2044 153.076 50.0619 153.972 49.7315C154.868 49.4012 155.686 48.8901 156.376 48.2301ZM124.889 47.4294C124.806 47.3581 124.731 47.2778 124.666 47.1899C124.599 47.117 124.537 47.0389 124.482 46.9565C124.342 46.7641 124.225 46.5566 124.131 46.338C124.09 46.2464 124.054 46.1524 124.023 46.0566C123.987 45.951 123.956 45.8435 123.931 45.7348C123.921 45.7206 123.925 45.6952 123.919 45.6719C123.9 45.5803 123.885 45.4859 123.873 45.3957C123.858 45.2818 123.849 45.1672 123.846 45.0524C123.843 44.9505 123.847 44.8485 123.858 44.7471C123.857 44.6964 123.862 44.6458 123.873 44.5963C123.877 44.5243 123.887 44.4527 123.904 44.3826C123.908 44.347 123.915 44.3119 123.925 44.2775C123.939 44.1967 123.959 44.117 123.985 44.0395C124.007 43.9546 124.034 43.8714 124.067 43.7906C124.067 43.7872 124.067 43.7837 124.068 43.7805C124.069 43.7772 124.071 43.7743 124.073 43.7718C124.085 43.7344 124.1 43.6978 124.117 43.6621C124.139 43.6063 124.166 43.5519 124.195 43.4993C124.218 43.4465 124.244 43.3955 124.274 43.3465C124.311 43.2763 124.352 43.2086 124.398 43.1438C124.454 43.0508 124.518 42.9627 124.589 42.8803C124.652 42.7908 124.724 42.7085 124.805 42.6351C124.879 42.5545 124.959 42.4793 125.044 42.41C125.586 41.9349 126.264 41.6433 126.982 41.577L131.074 41.137L150.624 38.1081L151.137 38.0538L151.218 38.0526C151.315 38.0444 151.416 38.0357 151.519 38.036C151.754 38.032 151.989 38.0434 152.222 38.0701L152.426 38.1014C152.555 38.1215 152.681 38.1496 152.806 38.1788L152.838 38.1884C154.046 38.4889 155.107 39.2129 155.827 40.2289C156.546 41.2449 156.878 42.4854 156.761 43.7251C156.644 44.9648 156.087 46.1214 155.189 46.9849C154.292 47.8484 153.115 48.3614 151.872 48.4307C151.857 48.4341 151.842 48.4354 151.826 48.4348L151.805 48.437C151.635 48.4454 151.465 48.4413 151.288 48.4335C151.201 48.43 151.121 48.4251 151.04 48.4139L150.79 48.3952L127.122 48.4278C126.395 48.3885 125.7 48.1158 125.14 47.6502C125.051 47.5836 124.967 47.5097 124.889 47.4294Z" fill="black"/>
<path d="M151.745 37.8749C150.716 37.8919 149.715 38.2137 148.869 38.7995C148.023 39.3854 147.37 40.209 146.991 41.1662C146.613 42.1234 146.528 43.1712 146.745 44.1772C146.962 45.1832 147.473 46.1021 148.213 46.8178C148.952 47.5334 149.888 48.0137 150.9 48.1979C151.913 48.3821 152.957 48.2619 153.901 47.8524C154.846 47.443 155.647 46.7628 156.205 45.8978C156.763 45.0328 157.051 44.0219 157.035 42.9928C157.023 42.3095 156.878 41.635 156.606 41.008C156.334 40.3809 155.941 39.8136 155.45 39.3383C154.959 38.8631 154.379 38.4892 153.743 38.2381C153.108 37.987 152.429 37.8636 151.745 37.8749Z" fill="#263238"/>
<path d="M155.816 40.312C156.428 41.2039 156.725 42.2747 156.66 43.3545C156.594 44.4342 156.17 45.4612 155.454 46.2724C154.738 47.0836 153.772 47.6326 152.709 47.8322C151.646 48.0319 150.547 47.8708 149.585 47.3745C148.624 46.8783 147.856 46.0752 147.403 45.0928C146.95 44.1104 146.839 43.0049 147.086 41.9517C147.332 40.8985 147.924 39.9579 148.766 39.2791C149.609 38.6004 150.654 38.2223 151.735 38.205C152.373 38.1934 153.006 38.3082 153.599 38.5429C154.192 38.7775 154.732 39.1273 155.189 39.572C155.422 39.7976 155.632 40.0455 155.816 40.312ZM147.955 45.7084C148.413 46.376 149.036 46.9134 149.764 47.268C150.492 47.6227 151.299 47.7825 152.108 47.7318C152.916 47.6811 153.697 47.4218 154.375 46.979C155.053 46.5362 155.604 45.9252 155.975 45.2055C156.347 44.4859 156.525 43.6824 156.493 42.8733C156.46 42.0642 156.219 41.2774 155.792 40.5895C155.365 39.9017 154.766 39.3364 154.055 38.9488C153.344 38.5613 152.545 38.3648 151.735 38.3785C150.889 38.3917 150.062 38.6342 149.343 39.0803C148.623 39.5264 148.039 40.1593 147.651 40.9115C147.263 41.6638 147.086 42.5072 147.139 43.352C147.193 44.1967 147.475 45.0111 147.955 45.7084Z" fill="#455A64"/>
<path d="M150.553 39.6129C150.554 39.7177 150.527 39.8207 150.473 39.9106C150.419 40.0005 150.341 40.0737 150.248 40.122C150.143 40.1756 150.041 40.2359 149.944 40.3027C149.858 40.3617 149.757 40.3957 149.653 40.4011C149.549 40.4064 149.445 40.3827 149.353 40.3328L148.717 39.9801L147.564 42.0471L148.2 42.4021C148.291 42.4543 148.365 42.5306 148.415 42.6224C148.465 42.7143 148.489 42.8183 148.484 42.9227L148.482 43.0958L148.489 43.2707C148.498 43.3744 148.477 43.4784 148.431 43.5713C148.384 43.6641 148.312 43.7422 148.224 43.7969L147.6 44.1703L148.817 46.2076L149.443 45.8332C149.533 45.7809 149.636 45.7543 149.74 45.7563C149.844 45.7582 149.946 45.7886 150.034 45.8442C150.133 45.9068 150.236 45.9641 150.341 46.0159C150.435 46.0609 150.515 46.1312 150.572 46.2188C150.628 46.3065 150.66 46.4081 150.662 46.5125L150.675 47.2386L153.044 47.1989L153.033 46.4742C153.032 46.3697 153.06 46.267 153.114 46.1775C153.168 46.0879 153.245 46.0149 153.338 45.9665C153.441 45.91 153.543 45.8505 153.635 45.7894C153.721 45.7304 153.821 45.6962 153.925 45.6905C154.03 45.6848 154.133 45.7077 154.226 45.7569L154.872 46.1113L156.023 44.0391L155.386 43.6826C155.295 43.6312 155.221 43.5558 155.171 43.4648C155.121 43.3738 155.097 43.2706 155.101 43.1668C155.105 43.1082 155.105 43.0495 155.102 42.9909C155.101 42.9325 155.101 42.8742 155.095 42.8174C155.087 42.7138 155.107 42.6099 155.154 42.5171C155.201 42.4243 155.272 42.3462 155.36 42.2912L155.984 41.9178L154.766 39.8829L154.143 40.2578C154.053 40.3104 153.95 40.3372 153.846 40.3353C153.742 40.3333 153.64 40.3027 153.552 40.2468C153.452 40.184 153.348 40.1269 153.241 40.0756C153.147 40.0303 153.068 39.9598 153.011 39.872C152.955 39.7841 152.924 39.6824 152.921 39.578L152.91 38.8534L150.539 38.8917L150.553 39.6129ZM153.32 43.0211C153.325 43.3228 153.24 43.6191 153.076 43.8725C152.912 44.1259 152.677 44.3251 152.4 44.4448C152.123 44.5645 151.817 44.5993 151.52 44.5449C151.223 44.4906 150.949 44.3494 150.732 44.1392C150.516 43.9291 150.366 43.6595 150.303 43.3644C150.24 43.0694 150.266 42.7622 150.377 42.4817C150.488 42.2013 150.68 41.9601 150.928 41.7888C151.177 41.6174 151.47 41.5236 151.772 41.5192C151.973 41.5159 152.172 41.5523 152.358 41.6261C152.544 41.7 152.714 41.8099 152.857 41.9495C153.001 42.0891 153.116 42.2558 153.195 42.4398C153.274 42.6239 153.316 42.8217 153.319 43.0221L153.32 43.0211Z" fill="#455A64"/>
<path d="M127.199 41.5799C126.526 41.5908 125.87 41.8011 125.316 42.1843C124.762 42.5676 124.335 43.1065 124.087 43.7329C123.839 44.3593 123.783 45.0451 123.925 45.7036C124.067 46.3621 124.401 46.9637 124.885 47.4323C125.369 47.9009 125.981 48.2155 126.643 48.3363C127.306 48.4571 127.99 48.3787 128.608 48.111C129.226 47.8433 129.751 47.3983 130.116 46.8322C130.481 46.2662 130.67 45.6046 130.66 44.9311C130.653 44.4838 130.557 44.0423 130.38 43.6318C130.202 43.2214 129.945 42.8499 129.624 42.5387C129.302 42.2276 128.923 41.9827 128.507 41.8182C128.091 41.6537 127.646 41.5727 127.199 41.5799Z" fill="#263238"/>
<path d="M129.9 43.1691C130.304 43.7583 130.5 44.4657 130.457 45.179C130.413 45.8923 130.133 46.5706 129.66 47.1064C129.187 47.6423 128.549 48.0049 127.847 48.1367C127.144 48.2686 126.418 48.1621 125.783 47.8343C125.148 47.5065 124.641 46.976 124.342 46.327C124.042 45.6781 123.968 44.9478 124.131 44.252C124.295 43.5563 124.685 42.9349 125.242 42.4864C125.798 42.038 126.488 41.7882 127.203 41.7766C127.732 41.7682 128.256 41.8909 128.726 42.1339C129.197 42.3769 129.6 42.7325 129.9 43.1691ZM124.75 46.705C124.865 46.8716 124.997 47.0265 125.142 47.1675C125.7 47.7053 126.443 48.0081 127.217 48.0135C127.992 48.0189 128.739 47.7264 129.304 47.1965C129.869 46.6666 130.209 45.9398 130.253 45.1664C130.298 44.393 130.043 43.6322 129.542 43.0412C129.041 42.4502 128.333 42.0743 127.562 41.9912C126.792 41.9081 126.019 42.1241 125.404 42.5946C124.789 43.0651 124.378 43.7541 124.256 44.5191C124.134 45.2842 124.311 46.0667 124.75 46.705Z" fill="#455A64"/>
<path d="M126.448 42.7531C126.449 42.8201 126.431 42.886 126.397 42.9438C126.363 43.0015 126.314 43.0489 126.255 43.0807C126.186 43.1176 126.121 43.1564 126.057 43.198C126.002 43.2365 125.937 43.2589 125.869 43.2626C125.801 43.2663 125.734 43.2513 125.674 43.2192L125.261 42.9893L124.516 44.3395L124.919 44.5685C124.978 44.6023 125.027 44.6516 125.059 44.7112C125.092 44.7708 125.107 44.8383 125.104 44.9061L125.102 45.02L125.108 45.1337C125.113 45.2025 125.099 45.2714 125.067 45.3326C125.035 45.3938 124.987 45.4448 124.927 45.4797L124.523 45.7226L125.313 47.0454L125.721 46.802C125.78 46.7678 125.847 46.7505 125.914 46.7518C125.982 46.7531 126.048 46.7731 126.105 46.8095C126.169 46.8509 126.236 46.888 126.305 46.9207C126.367 46.9507 126.418 46.9967 126.455 47.054C126.492 47.1112 126.513 47.1774 126.515 47.2455L126.522 47.7153L128.067 47.6973L128.059 47.2261C128.058 47.1591 128.076 47.0934 128.11 47.0358C128.144 46.9781 128.193 46.9307 128.252 46.8984C128.319 46.863 128.385 46.8242 128.448 46.7821C128.503 46.7432 128.569 46.7206 128.636 46.7169C128.704 46.7131 128.771 46.7284 128.831 46.7609L129.247 46.9912L129.991 45.641L129.576 45.4098C129.518 45.3766 129.469 45.3277 129.436 45.2685C129.404 45.2093 129.388 45.1421 129.392 45.0746C129.394 45.0367 129.395 44.9987 129.393 44.9608C129.392 44.9235 129.392 44.8838 129.389 44.8485C129.383 44.7796 129.397 44.7105 129.428 44.649C129.46 44.5876 129.508 44.5363 129.568 44.501L129.973 44.2571L129.182 42.9353L128.776 43.1792C128.718 43.2133 128.651 43.2307 128.583 43.2294C128.515 43.2281 128.449 43.2081 128.392 43.1717C128.326 43.1306 128.259 43.0934 128.19 43.0601C128.129 43.0307 128.077 42.9849 128.04 42.9278C128.003 42.8707 127.983 42.8046 127.982 42.7367L127.974 42.2644L126.428 42.2834L126.448 42.7531ZM128.25 44.9673C128.252 45.1631 128.196 45.3551 128.09 45.5191C127.983 45.6832 127.83 45.8119 127.65 45.8891C127.47 45.9663 127.271 45.9885 127.079 45.9529C126.886 45.9173 126.709 45.8255 126.568 45.689C126.428 45.5525 126.331 45.3776 126.29 45.1862C126.249 44.9947 126.265 44.7955 126.337 44.6134C126.41 44.4314 126.534 44.2748 126.695 44.1634C126.856 44.052 127.046 43.9907 127.242 43.9873C127.373 43.9851 127.502 44.0087 127.624 44.0568C127.745 44.1049 127.856 44.1766 127.95 44.2676C128.044 44.3587 128.118 44.4674 128.17 44.5875C128.221 44.7076 128.249 44.8367 128.25 44.9673Z" fill="#455A64"/>
</svg>
